<?xml version="1.0" encoding="UTF-8"?>
<svg id="Layer_1" data-name="Layer 1" xmlns="http://www.w3.org/2000/svg" viewBox="0 0 299.91 24.78">
  <defs>
    <style>
      .cls-1 {
        fill: #dd2e37;
      }
    </style>
  </defs>
  <path class="cls-1" d="m171.95,12.55c0-2.45.43-4.51,1.31-6.16.65-1.21,1.54-2.32,2.66-3.28,1.14-.97,2.37-1.7,3.7-2.17,1.78-.62,3.83-.94,6.19-.94,4.2,0,7.6,1.11,10.13,3.29,2.53,2.18,3.79,5.24,3.79,9.12s-1.26,6.9-3.77,9.1c-2.52,2.18-5.88,3.27-10.09,3.27s-7.65-1.09-10.15-3.26c-2.52-2.17-3.78-5.18-3.78-8.98Zm5.98-.18c0,2.72.74,4.77,2.25,6.17,1.48,1.4,3.39,2.1,5.7,2.1s4.18-.7,5.68-2.08c1.46-1.4,2.2-3.47,2.2-6.26s-.72-4.79-2.15-6.14c-1.45-1.35-3.36-2.03-5.74-2.03s-4.32.68-5.78,2.06c-1.44,1.36-2.17,3.42-2.17,6.16Z"/>
  <path class="cls-1" d="m135.79,24.14V.62h5.11l.06,9.26h14.24V.62s5.13,0,5.13,0v23.51h-5.13v-10.28h-14.18l.04,10.28h-5.27Z"/>
  <path class="cls-1" d="m66.26,24.11V.83h6.08l13.92,17.55-.17-17.55h4.9v23.28h-6.27l-13.46-17.29v17.29h-5Z"/>
  <path class="cls-1" d="m33.9,24.14V.79l20.61-.04v3.96h-15.12v5.2h13.59v3.93h-13.59v6.35h15.12v3.94h-20.61Z"/>
  <path class="cls-1" d="m279.29,24.07V.72h20.61v3.94h-15.11v5.18h13.57v3.93h-13.57v6.35h15.11v3.94h-20.61Z"/>
  <path class="cls-1" d="m0,24.14V.79h9.36c3.57,0,5.88.11,6.95.35,1.66.34,3.06,1.1,4.17,2.28,1.11,1.18,1.68,2.69,1.68,4.57,0,1.42-.32,2.63-.97,3.61-.65.98-1.45,1.75-2.45,2.31-1,.55-2,.93-3.04,1.09-1.38.23-3.42.34-6.06.34h-4.46v8.81H0ZM5.19,4.43v6.92s4.27.03,4.27.03c2.57,0,4.29-.13,5.14-.37.87-.25,1.55-.65,2.02-1.19.5-.54.76-1.16.76-1.87,0-.9-.35-1.62-1.05-2.2-.68-.58-1.55-.93-2.6-1.08-.77-.1-2.35-.16-4.64-.22l-3.91-.02Z"/>
  <path class="cls-1" d="m211.45,24.07V.72h9.38c3.56,0,5.87.11,6.93.35,1.68.33,3.06,1.09,4.19,2.27,1.11,1.18,1.66,2.69,1.66,4.56,0,1.44-.32,2.64-.96,3.61-.64.98-1.45,1.75-2.44,2.31-1,.55-2.01.93-3.04,1.1-1.39.24-3.41.34-6.05.34h-4.46v8.81h-5.21Zm5.21-19.71v6.93s4.29.03,4.29.03c2.55,0,4.26-.13,5.11-.39.87-.25,1.55-.65,2.05-1.18.47-.53.73-1.17.73-1.89,0-.88-.36-1.62-1.05-2.19-.67-.57-1.54-.93-2.59-1.07-.79-.11-2.34-.17-4.67-.22l-3.89-.03Z"/>
  <path class="cls-1" d="m245.39,24.07V.72h9.36c3.57,0,5.89.11,6.97.35,1.64.33,3.04,1.09,4.14,2.27,1.13,1.18,1.69,2.69,1.69,4.56,0,1.44-.33,2.64-.97,3.61-.65.98-1.46,1.75-2.46,2.31-.98.55-1.99.93-3.01,1.1-1.4.24-3.41.34-6.04.34h-4.48v8.81h-5.2Zm5.2-19.71v6.93l4.3.03c2.54,0,4.26-.13,5.12-.39.87-.25,1.55-.65,2.03-1.18.48-.53.73-1.17.73-1.89,0-.88-.34-1.62-1.02-2.19-.68-.57-1.57-.93-2.62-1.07-.78-.11-2.33-.17-4.64-.22l-3.9-.03Z"/>
  <path class="cls-1" d="m100.76,16.27h5.55c.33,1.56,1.06,2.53,2.11,3.26,1.03.74,2.42,1.11,4.18,1.11,1.88,0,3.44-.29,4.38-.95.95-.65,1.42-1.43,1.42-2.3,0-.58-.37-1.08-.78-1.47-.39-.39-1.08-.74-2.07-1.02-.68-.21-2.21-.55-4.62-1.05-3.08-.64-5.26-1.42-6.49-2.36-1.74-1.3-2.63-2.88-2.63-4.77,0-1.22.4-2.35,1.24-3.39.82-1.05,2.01-1.87,3.56-2.41,1.56-.54,3.43-.81,5.62-.81,3.59,0,6.29.65,8.12,1.96,1.8,1.3,2.76,3.05,2.85,5.25h-5.47c-.24-1.2-1.1-1.91-1.91-2.43-.79-.55-2.02-.81-3.64-.81s-2.98.29-3.92.86c-.6.36-1.05.97-1.05,1.58,0,.57.26,1.19.84,1.56,1.39.88,2.57,1.1,5.41,1.54,2.86.45,4.93.95,6.26,1.52,1.35.59,2.39,1.4,3.16,2.41.76,1.03,1.13,2.29,1.13,3.78,0,1.37-.44,2.64-1.35,3.83-.91,1.18-2.19,2.06-3.88,2.64-1.66.58-3.73.87-6.21.87-3.61,0-6.41-.69-8.35-2.08-1.93-1.39-3.07-3.64-3.45-6.32Z"/>
</svg>